<svg width="40" height="48" viewBox="0 0 40 48" fill="none" xmlns="http://www.w3.org/2000/svg">
<path d="M32.6172 25.526C32.6409 23.6862 33.1296 21.8823 34.0378 20.2821C34.946 18.6819 36.2442 17.3374 37.8117 16.3738C36.8159 14.9517 35.5023 13.7813 33.9751 12.9557C32.448 12.1301 30.7493 11.6719 29.0141 11.6177C25.3126 11.2291 21.7242 13.8326 19.838 13.8326C17.9153 13.8326 15.0111 11.6562 11.8839 11.7206C9.86108 11.7859 7.88971 12.3741 6.16183 13.4279C4.43396 14.4817 3.00851 15.9651 2.02438 17.7335C-2.23867 25.1143 0.941182 35.9616 5.02482 41.9277C7.06796 44.8491 9.4558 48.1124 12.5802 47.9967C15.6377 47.8699 16.7796 46.0471 20.4702 46.0471C24.1265 46.0471 25.1979 47.9967 28.3857 47.9231C31.6665 47.8699 33.7335 44.9887 35.705 42.0396C37.173 39.958 38.3026 37.6574 39.052 35.2229C37.1459 34.4168 35.5194 33.0674 34.3751 31.343C33.2308 29.6186 32.6194 27.5955 32.6172 25.526Z" fill="white"/>
<path d="M26.5957 7.69425C28.3845 5.54684 29.2658 2.7867 29.0524 0C26.3195 0.28704 23.7951 1.5932 21.9821 3.65822C21.0956 4.66704 20.4167 5.84067 19.9842 7.11202C19.5516 8.38337 19.3738 9.72752 19.461 11.0676C20.828 11.0817 22.1803 10.7854 23.4162 10.2011C24.652 9.61676 25.7392 8.75963 26.5957 7.69425Z" fill="white"/>
</svg>
