<svg width="38" height="47" viewBox="0 0 38 47" fill="none" xmlns="http://www.w3.org/2000/svg">
<path d="M17.2904 22.4453L0.158203 43.0949C0.159812 43.0985 0.159812 43.104 0.161421 43.1076C0.687599 45.3499 2.4898 47 4.62992 47C5.48596 47 6.28891 46.7369 6.9776 46.2764L7.03231 46.2398L26.3159 33.6033L17.2904 22.4453Z" fill="#EA4335"/>
<path d="M34.6215 18.9333L34.6054 18.9205L26.2799 13.4401L16.9004 22.9188L26.3137 33.6055L34.5941 28.1799C36.0456 27.2882 37.0319 25.5503 37.0319 23.5475C37.0319 21.5556 36.06 19.8269 34.6215 18.9333Z" fill="#FBBC04"/>
<path d="M0.157693 3.90545C0.0547097 4.33672 0 4.78991 0 5.25772V41.7472C0 42.215 0.0547097 42.6682 0.159302 43.0977L17.8788 22.9762L0.157693 3.90545Z" fill="#22BE65"/>
<path d="M17.4155 23.5L26.2817 13.4329L7.0207 0.750719C6.32074 0.273769 5.50332 -0.000339508 4.62957 -0.000339508C2.48946 -0.000339508 0.684037 1.65345 0.157858 3.8975C0.157858 3.89933 0.15625 3.90116 0.15625 3.90298L17.4155 23.5Z" fill="#34A853"/>
</svg>
